<svg width="512" height="512" viewBox="0 0 344 512" fill="none" xmlns="http://www.w3.org/2000/svg">
<rect width="512" height="512" fill="#0042EB"/>
<path d="M276.739 177.077L245.365 208.103C225.512 187.101 202.368 176.597 175.933 176.597C152.893 176.597 133.597 184.235 118.045 199.509C102.493 214.782 94.7143 233.346 94.7143 255.198C94.7143 277.049 102.786 296.94 118.924 312.635C135.064 328.336 154.975 336.184 178.655 336.184C194.052 336.184 207.034 332.951 217.601 326.478C228.168 320.009 236.688 309.879 243.166 296.087H175.385V254.241H293.129L293.448 264.105C293.448 284.578 288.141 303.989 277.537 322.341C266.927 340.692 253.193 354.696 236.326 364.347C219.459 373.998 199.675 378.825 176.979 378.825C152.686 378.825 131.021 373.547 111.98 362.995C92.9398 352.442 77.8761 337.404 66.7923 317.887C55.7057 298.37 50.1666 277.313 50.1666 254.721C50.1666 223.749 60.4005 196.804 80.8739 173.892C105.164 146.631 136.775 133 175.704 133C196.071 133 215.109 136.764 232.825 144.296C247.783 150.662 262.419 161.588 276.741 177.074L276.739 177.077Z" fill="white"/>
</svg>
